<?xml version="1.0" encoding="UTF-8" standalone="no"?>
<svg
   height="48"
   viewBox="0 -960 960 960"
   width="48"
   version="1.1"
   id="svg4"
   sodipodi:docname="mark_read_FILL0_wght400_GRAD0_opsz48 (copy).svg"
   inkscape:version="1.2.2 (732a01da63, 2022-12-09, custom)"
   xml:space="preserve"
   xmlns:inkscape="http://www.inkscape.org/namespaces/inkscape"
   xmlns:sodipodi="http://sodipodi.sourceforge.net/DTD/sodipodi-0.dtd"
   xmlns="http://www.w3.org/2000/svg"
   xmlns:svg="http://www.w3.org/2000/svg"><defs
     id="defs8" /><sodipodi:namedview
     id="namedview6"
     pagecolor="#ffffff"
     bordercolor="#000000"
     borderopacity="0.25"
     inkscape:showpageshadow="2"
     inkscape:pageopacity="0.0"
     inkscape:pagecheckerboard="0"
     inkscape:deskcolor="#d1d1d1"
     showgrid="true"
     inkscape:zoom="13.973282"
     inkscape:cx="32.490577"
     inkscape:cy="23.509151"
     inkscape:window-width="1920"
     inkscape:window-height="960"
     inkscape:window-x="0"
     inkscape:window-y="0"
     inkscape:window-maximized="1"
     inkscape:current-layer="svg4"><inkscape:grid
       type="xygrid"
       id="grid469" /></sodipodi:namedview><path
     id="path399"
     d="m 730.84318,-570.23291 -134,-134.00003 42,-42 92,91 153.5065,-152.61197 42,43.00003 z M 95.93111,-168.12435 C 81.865844,-182.19804 80.907994,-192.35282 80.874528,-212.25004 L 80,-732.19567 c -0.02691,-15.99998 6,-30 18,-42 12,-12 26,-18 42,-18 h 420.95934 l -0.4585,60 H 140 v 520.68038 c 226.65871,-1.6004 453.33544,-0.68038 680,-0.68038 V -551.7692 l 60,-0.95223 v 340.52576 c 0,16 -6,30 -18,42 -12,12 -26,18 -42,18 -226.37356,-0.12521 -452.74755,0.29024 -679.12067,-0.22608 -19.96813,-0.0455 -30.83281,-1.57873 -44.94822,-15.7026 z M 240,-311.19567 h 313 v -60 H 240 Z m 0,-130 h 480 v -60 H 240 Z m 0,-130 h 361.41091 l -0.4644,-60 H 240 Z m -100,-161 c -93.333333,-93.33333 -46.666667,-46.66667 0,0 z" /></svg>
