<?xml version="1.0" encoding="UTF-8" standalone="no"?>
<svg
   height="48"
   viewBox="0 -960 960 960"
   width="48"
   version="1.1"
   id="svg4"
   sodipodi:docname="mark_unread_chat_alt_FILL0_wght400_GRAD0_opsz48.svg"
   inkscape:version="1.2.2 (732a01da63, 2022-12-09, custom)"
   xmlns:inkscape="http://www.inkscape.org/namespaces/inkscape"
   xmlns:sodipodi="http://sodipodi.sourceforge.net/DTD/sodipodi-0.dtd"
   xmlns="http://www.w3.org/2000/svg"
   xmlns:svg="http://www.w3.org/2000/svg">
  <defs
     id="defs8" />
  <sodipodi:namedview
     id="namedview6"
     pagecolor="#ffffff"
     bordercolor="#000000"
     borderopacity="0.25"
     inkscape:showpageshadow="2"
     inkscape:pageopacity="0.0"
     inkscape:pagecheckerboard="0"
     inkscape:deskcolor="#d1d1d1"
     showgrid="false"
     inkscape:zoom="12.423983"
     inkscape:cx="39.520338"
     inkscape:cy="18.794295"
     inkscape:window-width="1920"
     inkscape:window-height="960"
     inkscape:window-x="0"
     inkscape:window-y="0"
     inkscape:window-maximized="1"
     inkscape:current-layer="svg4" />
  <path
     d="m 240.00004,-289.52029 h 313 v -60 h -313 z m 0,-130 h 480 v -60 h -480 z m 0,-130 h 435 c -14,-7.33333 -26.83333,-16 -38.5,-26 -11.66667,-10 -22.16667,-21.33333 -31.5,-34 h -365 z M 95.931155,-146.44897 c -14.06526,-14.07369 -15.02311,-24.22847 -15.05658,-44.12569 l -0.87453,-519.94563 c -0.0269,-15.99998 6,-30 18,-42 11.999995,-12 25.999995,-18 41.999995,-18 h 437 c -2.66667,9.33333 -4.66667,19.16667 -6,29.5 -1.33333,10.33333 -1.66667,20.5 -1,30.5 h -430 v 520.68038 c 226.65871,-1.6004 453.33544,-0.68038 680,-0.68038 v -349 c 11.196,-3.33333 21.66167,-7.83333 31.397,-13.5 9.73533,-5.66667 19.26967,-12.16667 28.603,-19.5 v 382 c 0,16 -6,30 -18,42 -12,12 -26,18 -42,18 -226.37356,-0.12521 -452.74755,0.29024 -679.12067,-0.22608 -19.96813,-0.0455 -30.83281,-1.57873 -44.948215,-15.7026 z m 44.068885,-564.07132 c -93.333325,-93.33333 -46.666655,-46.66667 0,0 z m 619.882,101 c -30.588,0 -56.54867,-10.706 -77.882,-32.118 -21.33333,-21.41133 -32,-47.41133 -32,-78 0,-30.588 10.706,-56.54867 32.118,-77.882 21.41133,-21.33333 47.41133,-32 78,-32 30.588,0 56.54867,10.706 77.882,32.118 21.33333,21.41133 32,47.41133 32,78 0,30.588 -10.706,56.54867 -32.118,77.882 -21.41133,21.33333 -47.41133,32 -78,32 z"
     id="path2"
     sodipodi:nodetypes="ccccccccccccscccssssscscccccscssccsccscscscscs" />
</svg>
